<svg width="34" height="16" viewBox="0 0 34 16" fill="none" xmlns="http://www.w3.org/2000/svg">
<path d="M18.2832 15.4V0H22.4852V6.028L28.4692 0H33.9472L27.4352 6.754L34.0572 15.4H28.4912L24.2892 9.548L22.4852 11.44V15.4H18.2832Z" fill="#FCF9F4"/>
<path d="M7.7906 0C11.3106 0 13.3566 1.056 13.3566 4.202C13.3566 5.852 12.7186 7.106 11.0906 7.458V7.502C12.8726 7.788 13.8626 8.822 13.8626 11.176C13.8626 14.432 11.9926 15.4 8.4506 15.4H0.662598V0H7.7906ZM7.8346 5.984C8.7146 5.984 9.5066 5.808 9.5066 4.994C9.5066 4.29 9.1106 3.894 7.6806 3.894H4.5126V5.984H7.8346ZM7.8566 11.528C9.1986 11.528 9.6386 11.308 9.6386 10.56C9.6386 9.746 8.8026 9.548 7.9446 9.548H4.5126V11.528H7.8566Z" fill="#FCF9F4"/>
</svg>
