<svg width="50" height="36" viewBox="0 0 50 36" fill="none" xmlns="http://www.w3.org/2000/svg">
<path d="M17.0042 15.1886C17.0042 16.0343 16.1979 16.2171 15.3019 16.2171H11.9197V14.0457H15.1451C16.601 14.0457 17.0042 14.4571 17.0042 15.1886Z" fill="#17120A"/>
<path d="M17.1386 20.9714C17.1386 21.7486 16.6906 21.9771 15.3243 21.9771H11.9197V19.92H15.4139C16.2874 19.92 17.1386 20.1257 17.1386 20.9714Z" fill="#17120A"/>
<path fill-rule="evenodd" clip-rule="evenodd" d="M0 10C0 4.47715 4.47715 0 10 0H40C45.5228 0 50 4.47715 50 10V26C50 31.5228 45.5228 36 40 36H10C4.47715 36 0 31.5228 0 26V10ZM26 26V10H30.2622V16.2629L36.3319 10H41.8884L35.2831 17.0171L42 26H36.3543L32.092 19.92L30.2622 21.8857V26H26ZM20.9239 14.3657C20.9239 11.0971 18.8409 10 15.2571 10H8V26H15.9291C19.5352 26 21.4391 24.9943 21.4391 21.6114C21.4391 19.1657 20.4312 18.0914 18.6169 17.7943V17.7486C20.2744 17.3829 20.9239 16.08 20.9239 14.3657Z" fill="#17120A"/>
</svg>
