<svg width="32" height="32" viewBox="0 0 32 32" fill="none" xmlns="http://www.w3.org/2000/svg">
<path d="M11.5224 14.4381C11.5224 14.9079 11.0708 15.0095 10.5691 15.0095H8.67505V13.8032H10.4813C11.2966 13.8032 11.5224 14.0317 11.5224 14.4381Z" fill="#17120A"/>
<path d="M11.5976 17.6508C11.5976 18.0825 11.3467 18.2095 10.5816 18.2095H8.67505V17.0667H10.6318C11.121 17.0667 11.5976 17.181 11.5976 17.6508Z" fill="#17120A"/>
<path fill-rule="evenodd" clip-rule="evenodd" d="M2 9.55556C2 6.48731 4.50721 4 7.6 4H24.4C27.4928 4 30 6.48731 30 9.55556V22.4444C30 25.5127 27.4928 28 24.4 28H7.6C4.5072 28 2 25.5127 2 22.4444V9.55556ZM16.56 20.4444V11.5556H18.9468V15.0349L22.3459 11.5556H25.4575L21.7586 15.454L25.52 20.4444H22.3584L19.9715 17.0667L18.9468 18.1587V20.4444H16.56ZM13.7174 13.981C13.7174 12.1651 12.5509 11.5556 10.544 11.5556H6.48V20.4445H10.9203C12.9397 20.4445 14.0059 19.8857 14.0059 18.0064C14.0059 16.6476 13.4415 16.0508 12.4255 15.8857V15.8603C13.3537 15.6571 13.7174 14.9333 13.7174 13.981Z" fill="#17120A"/>
</svg>
